<svg xmlns="http://www.w3.org/2000/svg" xmlns:xlink="http://www.w3.org/1999/xlink" style="margin:auto;background:#8eaccd;display:block;z-index:1;position:relative" width="1920" height="916" preserveAspectRatio="xMidYMid" viewBox="0 0 1920 916">
    <g transform="translate(960,458) scale(1,1) translate(-960,-458)"><path id="path0" d="M 83.40927713807889 847.2026444172513
c 0 34.10523808752582 -8.34489868099036 9.796185408119118 -18.141084089109476 9.796185408119118
S 47.12710895985993 881.3078825047771 47.12710895985993 847.2026444172513
s 8.34489868099036 -9.796185408119118 18.141084089109476 -9.796185408119118
S 83.40927713807889 813.0974063297256 83.40927713807889 847.2026444172513
z" fill="none" stroke="none"></path>
        <circle cx="0" cy="0" r="7.301297616249867" fill="#d2e0fb" opacity="0.9">
            <animateMotion begin="-6.785302486020626s" dur="10s" repeatCount="indefinite">
                <mpath xlink:href="#path0"></mpath>
            </animateMotion>
        </circle><path id="path1" d="M 1308.6101811652456 749.523762220826
c 0 36.80256460714418 -9.004882829407617 10.570949408435029 -19.575832237842647 10.570949408435029
S 1269.4585166895604 786.3263268279702 1269.4585166895604 749.523762220826
s 9.004882829407617 -10.570949408435029 19.575832237842647 -10.570949408435029
S 1308.6101811652456 712.7211976136819 1308.6101811652456 749.523762220826
z" fill="none" stroke="none"></path>
        <circle cx="0" cy="0" r="5.1193798291649895" fill="#8eaccd" opacity="0.9">
            <animateMotion begin="-1.242299534858502s" dur="10s" repeatCount="indefinite">
                <mpath xlink:href="#path1"></mpath>
            </animateMotion>
        </circle><path id="path2" d="M 377.4567378953582 860.4409814275579
c 0 28.65743113457916 -7.01192463931192 8.231389793974865 -15.243314433286786 8.231389793974865
S 346.9701090287846 889.098412562137 346.9701090287846 860.4409814275579
s 7.01192463931192 -8.231389793974865 15.243314433286786 -8.231389793974865
S 377.4567378953582 831.7835502929787 377.4567378953582 860.4409814275579
z" fill="none" stroke="none"></path>
        <circle cx="0" cy="0" r="5.618578052077016" fill="#d7e5ca" opacity="0.9">
            <animateMotion begin="-1.190966071745314s" dur="10s" repeatCount="indefinite">
                <mpath xlink:href="#path2"></mpath>
            </animateMotion>
        </circle><path id="path3" d="M 1472.7818190962323 364.4964343930817
c 0 37.47851790953146 -9.170275658715145 10.76510620805691 -19.935381866772055 10.76510620805691
S 1432.911055362688 401.97495230261313 1432.911055362688 364.4964343930817
s 9.170275658715145 -10.76510620805691 19.935381866772055 -10.76510620805691
S 1472.7818190962323 327.01791648355027 1472.7818190962323 364.4964343930817
z" fill="none" stroke="none"></path>
        <circle cx="0" cy="0" r="6.3662793517757255" fill="#d2e0fb" opacity="0.9">
            <animateMotion begin="-7.2055901549173225s" dur="10s" repeatCount="indefinite">
                <mpath xlink:href="#path3"></mpath>
            </animateMotion>
        </circle><path id="path4" d="M 700.6648708368316 427.1293114526327
c 0 22.45465579981118 -5.494224291443161 6.449741559520233 -11.943965850963394 6.449741559520233
S 676.7769391349048 449.58396725244387 676.7769391349048 427.1293114526327
s 5.494224291443161 -6.449741559520233 11.943965850963394 -6.449741559520233
S 700.6648708368316 404.6746556528215 700.6648708368316 427.1293114526327
z" fill="none" stroke="none"></path>
        <circle cx="0" cy="0" r="4.312104601432122" fill="#8eaccd" opacity="0.9">
            <animateMotion begin="-1.788078551882497s" dur="10s" repeatCount="indefinite">
                <mpath xlink:href="#path4"></mpath>
            </animateMotion>
        </circle><path id="path5" d="M 537.275259228881 30.151812336195697
c 0 31.673807111200745 -7.7499740804001815 9.097795659600214 -16.847769740000395 9.097795659600214
S 503.5797197488802 61.82561944739644 503.5797197488802 30.151812336195697
s 7.7499740804001815 -9.097795659600214 16.847769740000395 -9.097795659600214
S 537.275259228881 -1.521994775005048 537.275259228881 30.151812336195697
z" fill="none" stroke="none"></path>
        <circle cx="0" cy="0" r="6.841838433627968" fill="#d2e0fb" opacity="0.9">
            <animateMotion begin="-0.9453086291286117s" dur="10s" repeatCount="indefinite">
                <mpath xlink:href="#path5"></mpath>
            </animateMotion>
        </circle><path id="path6" d="M 708.7801258929131 224.57648194461098
c 0 23.100452168708454 -5.652238296598877 6.635236261224769 -12.287474557823646 6.635236261224769
S 684.2051767772658 247.67693411331942 684.2051767772658 224.57648194461098
s 5.652238296598877 -6.635236261224769 12.287474557823646 -6.635236261224769
S 708.7801258929131 201.47602977590253 708.7801258929131 224.57648194461098
z" fill="none" stroke="none"></path>
        <circle cx="0" cy="0" r="6.892434230306777" fill="#ec8573" opacity="0.9">
            <animateMotion begin="-3.132931224154296s" dur="10s" repeatCount="indefinite">
                <mpath xlink:href="#path6"></mpath>
            </animateMotion>
        </circle><path id="path7" d="M 605.9982598822093 534.6989551397226
c 0 33.61851273991821 -8.22580630870339 9.656381318912677 -17.882187627616066 9.656381318912677
S 570.2338846269771 568.3174678796407 570.2338846269771 534.6989551397226
s 8.22580630870339 -9.656381318912677 17.882187627616066 -9.656381318912677
S 605.9982598822093 501.0804423998043 605.9982598822093 534.6989551397226
z" fill="none" stroke="none"></path>
        <circle cx="0" cy="0" r="5.51164843955051" fill="#f9f3cc" opacity="0.9">
            <animateMotion begin="-6.731157860530768s" dur="10s" repeatCount="indefinite">
                <mpath xlink:href="#path7"></mpath>
            </animateMotion>
        </circle><path id="path8" d="M 1506.982867105692 900.0686480660307
c 0 27.822032711323708 -6.807518642132395 7.99143492772064 -14.798953569853035 7.99143492772064
S 1477.3849599659861 927.8906807773544 1477.3849599659861 900.0686480660307
s 6.807518642132395 -7.99143492772064 14.798953569853035 -7.99143492772064
S 1506.982867105692 872.246615354707 1506.982867105692 900.0686480660307
z" fill="none" stroke="none"></path>
        <circle cx="0" cy="0" r="5.745840065133772" fill="#d2e0fb" opacity="0.9">
            <animateMotion begin="-3.871938406440154s" dur="10s" repeatCount="indefinite">
                <mpath xlink:href="#path8"></mpath>
            </animateMotion>
        </circle><path id="path9" d="M 783.4840023434667 650.3952041013878
c 0 27.66169737989825 -6.768287656783614 7.9453811623112 -14.713668819094814 7.9453811623112
S 754.0566647052772 678.056901481286 754.0566647052772 650.3952041013878
s 6.768287656783614 -7.9453811623112 14.713668819094814 -7.9453811623112
S 783.4840023434667 622.7335067214896 783.4840023434667 650.3952041013878
z" fill="none" stroke="none"></path>
        <circle cx="0" cy="0" r="5.458320725087364" fill="#d2e0fb" opacity="0.9">
            <animateMotion begin="-5.297334602449908s" dur="10s" repeatCount="indefinite">
                <mpath xlink:href="#path9"></mpath>
            </animateMotion>
        </circle><path id="path10" d="M 1234.727078494273 203.84868528354286
c 0 35.20522332548924 -8.614044005172898 10.112138614768186 -18.726182619941085 10.112138614768186
S 1197.274713254391 239.0539086090321 1197.274713254391 203.84868528354286
s 8.614044005172898 -10.112138614768186 18.726182619941085 -10.112138614768186
S 1234.727078494273 168.64346195805362 1234.727078494273 203.84868528354286
z" fill="none" stroke="none"></path>
        <circle cx="0" cy="0" r="6.260833219089365" fill="#ec8573" opacity="0.9">
            <animateMotion begin="-6.701640180119044s" dur="10s" repeatCount="indefinite">
                <mpath xlink:href="#path10"></mpath>
            </animateMotion>
        </circle><path id="path11" d="M 35.443401080860426 232.03861067344786
c 0 35.33771473206423 -8.646462115292309 10.150194657082277 -18.796656772374586 10.150194657082277
S -2.149912463888743 267.3763254055121 -2.149912463888743 232.03861067344786
s 8.646462115292309 -10.150194657082277 18.796656772374586 -10.150194657082277
S 35.443401080860426 196.70089594138364 35.443401080860426 232.03861067344786
z" fill="none" stroke="none"></path>
        <circle cx="0" cy="0" r="5.908592544958841" fill="#ec8573" opacity="0.9">
            <animateMotion begin="-6.109883622835575s" dur="10s" repeatCount="indefinite">
                <mpath xlink:href="#path11"></mpath>
            </animateMotion>
        </circle><path id="path12" d="M 909.5987398780912 418.73580046947507
c 0 28.710648954485045 -7.024946020778255 8.246675763522301 -15.271621784300555 8.246675763522301
S 879.0554963094901 447.44644942396013 879.0554963094901 418.73580046947507
s 7.024946020778255 -8.246675763522301 15.271621784300555 -8.246675763522301
S 909.5987398780912 390.02515151499 909.5987398780912 418.73580046947507
z" fill="none" stroke="none"></path>
        <circle cx="0" cy="0" r="7.618796323199444" fill="#f9f3cc" opacity="0.9">
            <animateMotion begin="-4.344708233881822s" dur="10s" repeatCount="indefinite">
                <mpath xlink:href="#path12"></mpath>
            </animateMotion>
        </circle><path id="path13" d="M 1491.6167076624915 236.61905605750525
c 0 32.95722024809943 -8.064000699003053 9.466435603177498 -17.53043630218055 9.466435603177498
S 1456.5558350581305 269.57627630560467 1456.5558350581305 236.61905605750525
s 8.064000699003053 -9.466435603177498 17.53043630218055 -9.466435603177498
S 1491.6167076624915 203.66183580940583 1491.6167076624915 236.61905605750525
z" fill="none" stroke="none"></path>
        <circle cx="0" cy="0" r="4.042488909362084" fill="#d2e0fb" opacity="0.9">
            <animateMotion begin="-0.34150666557054343s" dur="10s" repeatCount="indefinite">
                <mpath xlink:href="#path13"></mpath>
            </animateMotion>
        </circle><path id="path14" d="M 472.1125992135634 437.62840907827183
c 0 27.17657972228734 -6.649588655453284 7.806038856401683 -14.455627511854967 7.806038856401683
S 443.20134418985344 464.80498880055916 443.20134418985344 437.62840907827183
s 6.649588655453284 -7.806038856401683 14.455627511854967 -7.806038856401683
S 472.1125992135634 410.4518293559845 472.1125992135634 437.62840907827183
z" fill="none" stroke="none"></path>
        <circle cx="0" cy="0" r="5.825329628685643" fill="#d2e0fb" opacity="0.9">
            <animateMotion begin="-2.4425881734447885s" dur="10s" repeatCount="indefinite">
                <mpath xlink:href="#path14"></mpath>
            </animateMotion>
        </circle><path id="path15" d="M 1494.971065744522 462.5598884278895
c 0 23.808086642491638 -5.825382901886251 6.838492971779513 -12.663875873665765 6.838492971779513
S 1469.6433139971905 486.36797507038114 1469.6433139971905 462.5598884278895
s 5.825382901886251 -6.838492971779513 12.663875873665765 -6.838492971779513
S 1494.971065744522 438.7518017853979 1494.971065744522 462.5598884278895
z" fill="none" stroke="none"></path>
        <circle cx="0" cy="0" r="7.239471769893072" fill="#d7e5ca" opacity="0.9">
            <animateMotion begin="-8.487644932037403s" dur="10s" repeatCount="indefinite">
                <mpath xlink:href="#path15"></mpath>
            </animateMotion>
        </circle><path id="path16" d="M 307.9375385431934 439.83697976078827
c 0 23.76579368297395 -5.8150346245574545 6.826344994045709 -12.641379618603164 6.826344994045709
S 282.6547793059871 463.6027734437622 282.6547793059871 439.83697976078827
s 5.8150346245574545 -6.826344994045709 12.641379618603164 -6.826344994045709
S 307.9375385431934 416.07118607781433 307.9375385431934 439.83697976078827
z" fill="none" stroke="none"></path>
        <circle cx="0" cy="0" r="7.978055559497266" fill="#f9f3cc" opacity="0.9">
            <animateMotion begin="-8.622905615685237s" dur="10s" repeatCount="indefinite">
                <mpath xlink:href="#path16"></mpath>
            </animateMotion>
        </circle><path id="path17" d="M 387.5142883204439 377.60815059516426
c 0 34.49212431703879 -8.439562332892468 9.90731230383029 -18.34687463672276 9.90731230383029
S 350.82053904699836 412.1002749122031 350.82053904699836 377.60815059516426
s 8.439562332892468 -9.90731230383029 18.34687463672276 -9.90731230383029
S 387.5142883204439 343.11602627812545 387.5142883204439 377.60815059516426
z" fill="none" stroke="none"></path>
        <circle cx="0" cy="0" r="6.466913969660138" fill="#ec8573" opacity="0.9">
            <animateMotion begin="-8.1761759928946s" dur="10s" repeatCount="indefinite">
                <mpath xlink:href="#path17"></mpath>
            </animateMotion>
        </circle><path id="path18" d="M 1252.3768989277871 316.3838044749138
c 0 35.40545700652122 -8.663037352659446 10.169652544426308 -18.832689897085753 10.169652544426308
S 1214.7115191336154 351.789261481435 1214.7115191336154 316.3838044749138
s 8.663037352659446 -10.169652544426308 18.832689897085753 -10.169652544426308
S 1252.3768989277871 280.9783474683926 1252.3768989277871 316.3838044749138
z" fill="none" stroke="none"></path>
        <circle cx="0" cy="0" r="4.107547388878975" fill="#d2e0fb" opacity="0.9">
            <animateMotion begin="-7.142610896425463s" dur="10s" repeatCount="indefinite">
                <mpath xlink:href="#path18"></mpath>
            </animateMotion>
        </circle><path id="path19" d="M 1399.3675880123512 891.5477461140055
c 0 25.83296086098258 -6.320830848963822 7.420105779218401 -13.740936628182222 7.420105779218401
S 1371.8857147559868 917.380706974988 1371.8857147559868 891.5477461140055
s 6.320830848963822 -7.420105779218401 13.740936628182222 -7.420105779218401
S 1399.3675880123512 865.7147852530229 1399.3675880123512 891.5477461140055
z" fill="none" stroke="none"></path>
        <circle cx="0" cy="0" r="4.712374589181923" fill="#d7e5ca" opacity="0.9">
            <animateMotion begin="-2.4639230802321244s" dur="10s" repeatCount="indefinite">
                <mpath xlink:href="#path19"></mpath>
            </animateMotion>
        </circle><path id="path20" d="M 1170.9416972188603 66.2929373341282
c 0 23.99845005288552 -5.871961183152839 6.89317182370116 -12.765133006853999 6.89317182370116
S 1145.4114312051522 90.29138738701371 1145.4114312051522 66.2929373341282
s 5.871961183152839 -6.89317182370116 12.765133006853999 -6.89317182370116
S 1170.9416972188603 42.29448728124268 1170.9416972188603 66.2929373341282
z" fill="none" stroke="none"></path>
        <circle cx="0" cy="0" r="4.499410255557887" fill="#d2e0fb" opacity="0.9">
            <animateMotion begin="-8.89572072901641s" dur="10s" repeatCount="indefinite">
                <mpath xlink:href="#path20"></mpath>
            </animateMotion>
        </circle><path id="path21" d="M 1845.764536625778 120.30997339011883
c 0 27.18563063434938 -6.651803240319529 7.808638586462056 -14.460441826781585 7.808638586462056
S 1816.8436529722148 147.4956040244682 1816.8436529722148 120.30997339011883
s 6.651803240319529 -7.808638586462056 14.460441826781585 -7.808638586462056
S 1845.764536625778 93.12434275576945 1845.764536625778 120.30997339011883
z" fill="none" stroke="none"></path>
        <circle cx="0" cy="0" r="5.219187263520743" fill="#d2e0fb" opacity="0.9">
            <animateMotion begin="-0.26236155509147707s" dur="10s" repeatCount="indefinite">
                <mpath xlink:href="#path21"></mpath>
            </animateMotion>
        </circle><path id="path22" d="M 502.87097785411936 123.70690210544673
c 0 18.856237574268846 -4.613760257533866 5.416153345800627 -10.029913603334492 5.416153345800627
S 482.8111506474504 142.56313967971556 482.8111506474504 123.70690210544673
s 4.613760257533866 -5.416153345800627 10.029913603334492 -5.416153345800627
S 502.87097785411936 104.85066453117788 502.87097785411936 123.70690210544673
z" fill="none" stroke="none"></path>
        <circle cx="0" cy="0" r="4.218835981446841" fill="#ec8573" opacity="0.9">
            <animateMotion begin="-5.187691320125724s" dur="10s" repeatCount="indefinite">
                <mpath xlink:href="#path22"></mpath>
            </animateMotion>
        </circle><path id="path23" d="M 1522.866632586654 871.2554585281935
c 0 32.20959568299952 -7.88107128413818 9.251692377031778 -17.13276366116996 9.251692377031778
S 1488.6011052643141 903.465054211193 1488.6011052643141 871.2554585281935
s 7.88107128413818 -9.251692377031778 17.13276366116996 -9.251692377031778
S 1522.866632586654 839.0458628451939 1522.866632586654 871.2554585281935
z" fill="none" stroke="none"></path>
        <circle cx="0" cy="0" r="7.5365129709155925" fill="#d2e0fb" opacity="0.9">
            <animateMotion begin="-2.647964358108168s" dur="10s" repeatCount="indefinite">
                <mpath xlink:href="#path23"></mpath>
            </animateMotion>
        </circle><path id="path24" d="M 366.31180922821625 431.13537423152525
c 0 31.57944348661546 -7.726885108427187 9.070691214240611 -16.797576322667798 9.070691214240611
S 332.71665658288066 462.7148177181407 332.71665658288066 431.13537423152525
s 7.726885108427187 -9.070691214240611 16.797576322667798 -9.070691214240611
S 366.31180922821625 399.5559307449098 366.31180922821625 431.13537423152525
z" fill="none" stroke="none"></path>
        <circle cx="0" cy="0" r="5.21240656622378" fill="#8eaccd" opacity="0.9">
            <animateMotion begin="-3.05746089686711s" dur="10s" repeatCount="indefinite">
                <mpath xlink:href="#path24"></mpath>
            </animateMotion>
        </circle><path id="path25" d="M 785.1622697655839 448.1132301725658
c 0 35.508586741232996 -8.68827122391871 10.199274915035009 -18.88754613895372 10.199274915035009
S 747.3871774876766 483.6218169137988 747.3871774876766 448.1132301725658
s 8.68827122391871 -10.199274915035009 18.88754613895372 -10.199274915035009
S 785.1622697655839 412.6046434313328 785.1622697655839 448.1132301725658
z" fill="none" stroke="none"></path>
        <circle cx="0" cy="0" r="5.822269657629696" fill="#d7e5ca" opacity="0.9">
            <animateMotion begin="-5.436878875471862s" dur="10s" repeatCount="indefinite">
                <mpath xlink:href="#path25"></mpath>
            </animateMotion>
        </circle><path id="path26" d="M 1004.7251576707434 290.0969827581285
c 0 24.711247571688414 -6.046369086689718 7.0979115365488 -13.144280623238519 7.0979115365488
S 978.4365964242664 314.8082303298169 978.4365964242664 290.0969827581285
s 6.046369086689718 -7.0979115365488 13.144280623238519 -7.0979115365488
S 1004.7251576707434 265.38573518644006 1004.7251576707434 290.0969827581285
z" fill="none" stroke="none"></path>
        <circle cx="0" cy="0" r="6.427441597165927" fill="#d7e5ca" opacity="0.9">
            <animateMotion begin="-9.168635899595836s" dur="10s" repeatCount="indefinite">
                <mpath xlink:href="#path26"></mpath>
            </animateMotion>
        </circle><path id="path27" d="M 1063.0572702966747 836.2880410019449
c 0 35.92919012382824 -8.791184817532441 10.320086524929389 -19.11127134246183 10.320086524929389
S 1024.834727611751 872.2172311257731 1024.834727611751 836.2880410019449
s 8.791184817532441 -10.320086524929389 19.11127134246183 -10.320086524929389
S 1063.0572702966747 800.3588508781166 1063.0572702966747 836.2880410019449
z" fill="none" stroke="none"></path>
        <circle cx="0" cy="0" r="7.93151894859232" fill="#8eaccd" opacity="0.9">
            <animateMotion begin="-4.387936669084311s" dur="10s" repeatCount="indefinite">
                <mpath xlink:href="#path27"></mpath>
            </animateMotion>
        </circle><path id="path28" d="M 222.44096106090362 734.1245922835478
c 0 27.927429979826776 -6.83330733548953 8.02170861122684 -14.855015946716371 8.02170861122684
S 192.73092916747086 762.0520222633746 192.73092916747086 734.1245922835478
s 6.83330733548953 -8.02170861122684 14.855015946716371 -8.02170861122684
S 222.44096106090362 706.197162303721 222.44096106090362 734.1245922835478
z" fill="none" stroke="none"></path>
        <circle cx="0" cy="0" r="5.112661081218043" fill="#d2e0fb" opacity="0.9">
            <animateMotion begin="-7.535789114270326s" dur="10s" repeatCount="indefinite">
                <mpath xlink:href="#path28"></mpath>
            </animateMotion>
        </circle><path id="path29" d="M 425.06658945669204 889.5529558169469
c 0 36.1736585558367 -8.851001561534511 10.39030618093182 -19.241307742466333 10.39030618093182
S 386.58397397175935 925.7266143727836 386.58397397175935 889.5529558169469
s 8.851001561534511 -10.39030618093182 19.241307742466333 -10.39030618093182
S 425.06658945669204 853.3792972611102 425.06658945669204 889.5529558169469
z" fill="none" stroke="none"></path>
        <circle cx="0" cy="0" r="7.0913093286831606" fill="#8eaccd" opacity="0.9">
            <animateMotion begin="-6.202955626755942s" dur="10s" repeatCount="indefinite">
                <mpath xlink:href="#path29"></mpath>
            </animateMotion>
        </circle></g>
</svg>